 <svg version="1.0" xmlns="http://www.w3.org/2000/svg" width="700.000000pt" height="588.000000pt" viewBox="0 0 700.000000 588.000000" preserveAspectRatio="xMidYMid meet">
<metadata>
Created by potrace 1.12, written by Peter Selinger 2001-2015
</metadata>
<g transform="translate(0.000000,588.000000) scale(0.100000,-0.100000)" fill="#000000" stroke="none">
<path d="M2302 3468 l3 -1613 1205 0 1205 0 3 1613 2 1612 -1210 0 -1210 0 2
-1612z m2298 -3 l0 -1495 -1090 0 -1090 0 0 1495 0 1495 1090 0 1090 0 0
-1495z"></path>
<path d="M3500 4345 c0 -8 5 -15 10 -15 6 0 10 7 10 15 0 8 -4 15 -10 15 -5 0
-10 -7 -10 -15z"></path>
<path d="M3486 4263 c-20 -62 -25 -95 -36 -228 -6 -78 -18 -138 -40 -205 -17
-52 -47 -157 -65 -234 -19 -76 -37 -142 -42 -146 -57 -49 -412 -371 -422 -383
-13 -17 -21 -140 -9 -152 3 -4 93 10 200 29 107 20 202 36 212 36 12 0 16 -10
16 -43 0 -41 -7 -52 -112 -177 -94 -112 -112 -138 -111 -165 1 -18 6 -42 12
-54 12 -21 13 -20 114 34 78 41 103 60 105 77 6 36 21 49 43 37 11 -5 41 -9
67 -7 37 2 48 7 50 22 6 27 29 48 48 44 17 -3 28 -18 38 -50 4 -14 16 -18 53
-18 26 0 55 4 63 10 19 12 40 -6 40 -35 0 -19 19 -33 105 -79 57 -31 106 -56
108 -56 3 0 10 21 16 46 14 55 20 44 -118 209 -93 110 -101 123 -101 163 0 32
4 42 16 42 10 0 105 -16 212 -36 107 -19 197 -33 200 -29 3 3 6 34 6 70 0 49
-5 69 -20 86 -10 12 -109 103 -219 202 -110 99 -203 190 -207 201 -4 12 -24
86 -43 166 -20 79 -49 185 -64 235 -19 60 -32 132 -39 215 -10 119 -34 220
-52 220 -5 0 -15 -21 -24 -47z"></path>
<path d="M679 1295 c-3 -3 6 -31 22 -63 15 -32 48 -107 74 -167 25 -61 68
-157 95 -215 27 -58 81 -177 119 -265 l69 -160 84 -3 84 -3 23 48 c13 26 56
122 96 213 40 91 118 265 173 388 70 154 97 225 88 228 -7 3 -52 4 -100 2
l-88 -3 -50 -120 c-27 -66 -63 -151 -80 -190 -17 -38 -54 -125 -83 -193 -28
-67 -54 -124 -57 -127 -3 -3 -54 108 -113 247 -59 139 -120 282 -136 318 l-28
65 -93 3 c-52 1 -96 0 -99 -3z"></path>
<path d="M4898 993 c-3 -290 -4 -310 -24 -343 -24 -42 -56 -60 -106 -60 -46 0
-83 14 -121 46 -16 14 -33 24 -37 22 -4 -2 -31 -31 -60 -66 l-53 -63 29 -30
c16 -16 53 -42 84 -57 49 -24 66 -27 160 -27 95 0 110 3 156 27 29 15 68 46
87 69 64 74 67 94 67 461 l0 328 -89 0 -90 0 -3 -307z"></path>
<path d="M6030 1156 l0 -75 -42 -3 -43 -3 0 -75 0 -75 42 -3 41 -3 4 -192 c3
-180 4 -195 26 -233 36 -62 72 -79 167 -78 115 1 125 8 125 94 l0 70 -60 0
c-56 0 -61 2 -70 26 -6 14 -10 90 -10 169 l0 144 68 3 67 3 3 69 c4 82 0 86
-80 86 l-58 0 0 75 0 75 -90 0 -90 0 0 -74z"></path>
<path d="M1955 1084 c-104 -26 -193 -92 -232 -171 -26 -53 -28 -67 -28 -168 0
-100 2 -115 27 -160 52 -98 146 -163 249 -172 74 -7 118 2 163 32 45 30 44 30
48 3 3 -22 8 -23 96 -26 l92 -3 0 325 0 326 -23 5 c-12 3 -54 5 -92 3 -67 -3
-70 -4 -73 -29 l-3 -26 -54 29 c-52 28 -128 42 -170 32z m155 -183 c19 -10 45
-36 58 -57 30 -51 28 -158 -4 -201 -39 -52 -70 -68 -134 -68 -66 0 -99 18
-138 76 -21 29 -23 44 -20 106 2 53 9 79 23 99 46 61 146 82 215 45z"></path>
<path d="M2782 1080 c-12 -5 -39 -21 -60 -35 l-37 -25 -5 27 -5 28 -90 0 -90
0 0 -445 0 -445 90 0 90 0 5 149 c5 146 5 148 24 127 51 -56 205 -68 294 -22
129 66 199 219 171 374 -20 116 -81 196 -185 244 -58 26 -166 39 -202 23z
m138 -183 c50 -33 74 -81 75 -147 0 -110 -61 -175 -167 -175 -69 0 -103 21
-136 86 -19 36 -23 54 -19 103 6 65 25 98 77 134 46 31 124 31 170 -1z"></path>
<path d="M3515 1077 c-106 -35 -179 -99 -221 -190 -39 -86 -40 -195 -2 -279
32 -70 96 -133 168 -167 49 -23 67 -26 165 -26 100 0 115 3 166 27 31 16 64
37 74 48 19 21 18 22 -27 67 l-46 46 -57 -17 c-72 -23 -167 -22 -209 2 -17 10
-41 34 -54 53 l-23 34 235 3 236 2 0 75 c0 141 -58 238 -176 296 -74 36 -165
47 -229 26z m154 -162 c34 -17 81 -70 81 -91 0 -11 -26 -14 -145 -14 -133 0
-145 1 -145 18 0 22 55 77 90 91 37 14 87 13 119 -4z"></path>
<path d="M5453 1076 c-100 -33 -186 -105 -225 -191 -19 -40 -23 -67 -23 -140
0 -78 4 -97 28 -147 55 -111 165 -179 305 -186 103 -6 186 16 240 64 l37 33
-47 47 -47 48 -48 -17 c-59 -21 -164 -22 -202 -2 -30 15 -81 70 -81 86 0 5
102 10 233 11 l232 3 -1 85 c0 72 -4 94 -28 142 -61 129 -241 207 -373 164z
m150 -160 c36 -14 87 -69 87 -92 0 -11 -27 -14 -150 -14 -82 0 -150 4 -150 9
0 4 10 23 23 42 41 62 120 85 190 55z"></path>
<path d="M4022 768 l3 -73 193 -3 192 -2 0 75 0 75 -195 0 -196 0 3 -72z"></path>
</g>
</svg>