<svg width="700" height="588" xmlns="http://www.w3.org/2000/svg" preserveAspectRatio="xMidYMid meet">
 <metadata>Created by potrace 1.12, written by Peter Selinger 2001-2015</metadata>

 <g>
  <title>background</title>
  <rect fill="none" id="canvas_background" height="402" width="582" y="-1" x="-1"/>
 </g>
 <g>
  <title>Layer 1</title>
  <g id="svg_1" fill="#000000" transform="translate(0,588) scale(0.10000000149011612,-0.10000000149011612) ">
   <path id="svg_2" d="m2302,3468l3,-1613l1205,0l1205,0l3,1613l2,1612l-1210,0l-1210,0l2,-1612zm2298,-3l0,-1495l-1090,0l-1090,0l0,1495l0,1495l1090,0l1090,0l0,-1495z"/>
   <path id="svg_4" d="m3486,4263c-20,-62 -25,-95 -36,-228c-6,-78 -18,-138 -40,-205c-17,-52 -47,-157 -65,-234c-19,-76 -37,-142 -42,-146c-57,-49 -412,-371 -422,-383c-13,-17 -21,-140 -9,-152c3,-4 93,10 200,29c107,20 202,36 212,36c12,0 16,-10 16,-43c0,-41 -7,-52 -112,-177c-94,-112 -112,-138 -111,-165c1,-18 6,-42 12,-54c12,-21 13,-20 114,34c78,41 103,60 105,77c6,36 21,49 43,37c11,-5 41,-9 67,-7c37,2 48,7 50,22c6,27 29,48 48,44c17,-3 28,-18 38,-50c4,-14 16,-18 53,-18c26,0 55,4 63,10c19,12 40,-6 40,-35c0,-19 19,-33 105,-79c57,-31 106,-56 108,-56c3,0 10,21 16,46c14,55 20,44 -118,209c-93,110 -101,123 -101,163c0,32 4,42 16,42c10,0 105,-16 212,-36c107,-19 197,-33 200,-29c3,3 6,34 6,70c0,49 -5,69 -20,86c-10,12 -109,103 -219,202c-110,99 -203,190 -207,201c-4,12 -24,86 -43,166c-20,79 -49,185 -64,235c-19,60 -32,132 -39,215c-10,119 -34,220 -52,220c-5,0 -15,-21 -24,-47z"/>
   <path id="svg_5" d="m679,1295c-3,-3 6,-31 22,-63c15,-32 48,-107 74,-167c25,-61 68,-157 95,-215c27,-58 81,-177 119,-265l69,-160l84,-3l84,-3l23,48c13,26 56,122 96,213c40,91 118,265 173,388c70,154 97,225 88,228c-7,3 -52,4 -100,2l-88,-3l-50,-120c-27,-66 -63,-151 -80,-190c-17,-38 -54,-125 -83,-193c-28,-67 -54,-124 -57,-127c-3,-3 -54,108 -113,247c-59,139 -120,282 -136,318l-28,65l-93,3c-52,1 -96,0 -99,-3z"/>
   <path id="svg_6" d="m4898,993c-3,-290 -4,-310 -24,-343c-24,-42 -56,-60 -106,-60c-46,0 -83,14 -121,46c-16,14 -33,24 -37,22c-4,-2 -31,-31 -60,-66l-53,-63l29,-30c16,-16 53,-42 84,-57c49,-24 66,-27 160,-27c95,0 110,3 156,27c29,15 68,46 87,69c64,74 67,94 67,461l0,328l-89,0l-90,0l-3,-307z"/>
   <path id="svg_7" d="m6030,1156l0,-75l-42,-3l-43,-3l0,-75l0,-75l42,-3l41,-3l4,-192c3,-180 4,-195 26,-233c36,-62 72,-79 167,-78c115,1 125,8 125,94l0,70l-60,0c-56,0 -61,2 -70,26c-6,14 -10,90 -10,169l0,144l68,3l67,3l3,69c4,82 0,86 -80,86l-58,0l0,75l0,75l-90,0l-90,0l0,-74z"/>
   <path id="svg_8" d="m1955,1084c-104,-26 -193,-92 -232,-171c-26,-53 -28,-67 -28,-168c0,-100 2,-115 27,-160c52,-98 146,-163 249,-172c74,-7 118,2 163,32c45,30 44,30 48,3c3,-22 8,-23 96,-26l92,-3l0,325l0,326l-23,5c-12,3 -54,5 -92,3c-67,-3 -70,-4 -73,-29l-3,-26l-54,29c-52,28 -128,42 -170,32zm155,-183c19,-10 45,-36 58,-57c30,-51 28,-158 -4,-201c-39,-52 -70,-68 -134,-68c-66,0 -99,18 -138,76c-21,29 -23,44 -20,106c2,53 9,79 23,99c46,61 146,82 215,45z"/>
   <path id="svg_9" d="m2782,1080c-12,-5 -39,-21 -60,-35l-37,-25l-5,27l-5,28l-90,0l-90,0l0,-445l0,-445l90,0l90,0l5,149c5,146 5,148 24,127c51,-56 205,-68 294,-22c129,66 199,219 171,374c-20,116 -81,196 -185,244c-58,26 -166,39 -202,23zm138,-183c50,-33 74,-81 75,-147c0,-110 -61,-175 -167,-175c-69,0 -103,21 -136,86c-19,36 -23,54 -19,103c6,65 25,98 77,134c46,31 124,31 170,-1z"/>
   <path id="svg_10" d="m3515,1077c-106,-35 -179,-99 -221,-190c-39,-86 -40,-195 -2,-279c32,-70 96,-133 168,-167c49,-23 67,-26 165,-26c100,0 115,3 166,27c31,16 64,37 74,48c19,21 18,22 -27,67l-46,46l-57,-17c-72,-23 -167,-22 -209,2c-17,10 -41,34 -54,53l-23,34l235,3l236,2l0,75c0,141 -58,238 -176,296c-74,36 -165,47 -229,26zm154,-162c34,-17 81,-70 81,-91c0,-11 -26,-14 -145,-14c-133,0 -145,1 -145,18c0,22 55,77 90,91c37,14 87,13 119,-4z"/>
   <path id="svg_11" d="m5453,1076c-100,-33 -186,-105 -225,-191c-19,-40 -23,-67 -23,-140c0,-78 4,-97 28,-147c55,-111 165,-179 305,-186c103,-6 186,16 240,64l37,33l-47,47l-47,48l-48,-17c-59,-21 -164,-22 -202,-2c-30,15 -81,70 -81,86c0,5 102,10 233,11l232,3l-1,85c0,72 -4,94 -28,142c-61,129 -241,207 -373,164zm150,-160c36,-14 87,-69 87,-92c0,-11 -27,-14 -150,-14c-82,0 -150,4 -150,9c0,4 10,23 23,42c41,62 120,85 190,55z"/>
   <path id="svg_12" d="m4022,768l3,-73l193,-3l192,-2l0,75l0,75l-195,0l-196,0l3,-72z"/>
  </g>
 </g>
</svg>